<?xml version="1.0" encoding="UTF-8" standalone="no"?><!DOCTYPE svg PUBLIC "-//W3C//DTD SVG 1.1//EN" "http://www.w3.org/Graphics/SVG/1.1/DTD/svg11.dtd"><!-- Generated by graphviz version 2.40.1 (20161225.0304)
 --><!-- Title: main Pages: 1 --><svg xmlns="http://www.w3.org/2000/svg" xmlns:xlink="http://www.w3.org/1999/xlink" width="11164pt" height="489pt" viewBox="0.00 0.00 11163.76 489.20">
<g id="graph0" class="graph" transform="scale(1 1) rotate(0) translate(4 485.2)">
<title>main</title>
<polygon fill="#ffffff" stroke="transparent" points="-4,4 -4,-485.2 11159.7611,-485.2 11159.7611,4 -4,4"/>
<!-- ClassRepresentation -->
<g id="node1" class="node">
<title>ClassRepresentation</title>
<polygon fill="none" stroke="#000000" points="0,-188.3 0,-463.5 812.6658,-463.5 812.6658,-188.3 0,-188.3"/>
<text text-anchor="middle" x="406.3329" y="-446.9" font-family="Times,serif" font-size="14.00" fill="#000000">ClassRepresentation</text>
<polyline fill="none" stroke="#000000" points="0,-438.7 812.6658,-438.7 "/>
<text text-anchor="start" x="8" y="-422.1" font-family="Times,serif" font-size="14.00" fill="#000000">+ ClassRepresentation(String, List&lt;NodeType&gt;, List&lt;String&gt;, List&lt;MethodRepresentation&gt;, Set&lt;Relationship&lt;LeafNode&gt;&gt;, List&lt;String&gt;) : </text>
<polyline fill="none" stroke="#000000" points="0,-413.9 812.6658,-413.9 "/>
<text text-anchor="start" x="8" y="-397.3" font-family="Times,serif" font-size="14.00" fill="#000000">- modifiers : List&lt;NodeType&gt;</text>
<text text-anchor="start" x="8" y="-380.5" font-family="Times,serif" font-size="14.00" fill="#000000"> - interfaces : List&lt;String&gt;</text>
<text text-anchor="start" x="8" y="-363.7" font-family="Times,serif" font-size="14.00" fill="#000000"> - methods : List&lt;MethodRepresentation&gt;</text>
<text text-anchor="start" x="8" y="-346.9" font-family="Times,serif" font-size="14.00" fill="#000000"> - className : String</text>
<text text-anchor="start" x="8" y="-330.1" font-family="Times,serif" font-size="14.00" fill="#000000"> - relationships : Set&lt;Relationship&lt;LeafNode&gt;&gt;</text>
<polyline fill="none" stroke="#000000" points="0,-321.9 812.6658,-321.9 "/>
<text text-anchor="start" x="8" y="-305.3" font-family="Times,serif" font-size="14.00" fill="#000000">+ toString() : String</text>
<text text-anchor="start" x="8" y="-288.5" font-family="Times,serif" font-size="14.00" fill="#000000"> + findMethod(String) : MethodRepresentation</text>
<polyline fill="none" stroke="#000000" points="0,-280.3 812.6658,-280.3 "/>
<text text-anchor="start" x="8" y="-263.7" font-family="Times,serif" font-size="14.00" fill="#000000">className : String</text>
<text text-anchor="start" x="8" y="-246.9" font-family="Times,serif" font-size="14.00" fill="#000000"> modifiers : List&lt;NodeType&gt;</text>
<text text-anchor="start" x="8" y="-230.1" font-family="Times,serif" font-size="14.00" fill="#000000"> methods : List&lt;MethodRepresentation&gt;</text>
<text text-anchor="start" x="8" y="-213.3" font-family="Times,serif" font-size="14.00" fill="#000000"> relationships : Set&lt;Relationship&lt;LeafNode&gt;&gt;</text>
<text text-anchor="start" x="8" y="-196.5" font-family="Times,serif" font-size="14.00" fill="#000000"> interfaces : List&lt;String&gt;</text>
</g>
<!-- SrcElement -->
<g id="node28" class="node">
<title>SrcElement</title>
<polygon fill="none" stroke="#000000" points="1162.0633,-34.1 1162.0633,-100.5 1258.6025,-100.5 1258.6025,-34.1 1162.0633,-34.1"/>
<text text-anchor="middle" x="1210.3329" y="-83.9" font-family="Times,serif" font-size="14.00" fill="#000000">&lt;&lt;interface&gt;&gt;</text>
<text text-anchor="middle" x="1210.3329" y="-67.1" font-family="Times,serif" font-size="14.00" fill="#000000">SrcElement</text>
<polyline fill="none" stroke="#000000" points="1162.0633,-58.9 1258.6025,-58.9 "/>
<text text-anchor="middle" x="1210.3329" y="-42.3" font-family="Times,serif" font-size="14.00" fill="#000000"> </text>
</g>
<!-- ClassRepresentation&#45;&gt;SrcElement -->
<g id="edge1" class="edge">
<title>ClassRepresentation-&gt;SrcElement</title>
<path fill="none" stroke="#008200" stroke-dasharray="5,2" d="M812.6934,-192C1005.4502,-192 1194.243,-192 1194.243,-192 1194.243,-192 1194.243,-110.7173 1194.243,-110.7173"/>
<polygon fill="#008200" stroke="#008200" points="1197.7431,-110.7173 1194.243,-100.7173 1190.7431,-110.7173 1197.7431,-110.7173"/>
</g>
<!-- ConstructorVisitor -->
<g id="node2" class="node">
<title>ConstructorVisitor</title>
<polygon fill="none" stroke="#000000" points="2194.8298,-288.7 2194.8298,-363.1 2457.836,-363.1 2457.836,-288.7 2194.8298,-288.7"/>
<text text-anchor="middle" x="2326.3329" y="-346.5" font-family="Times,serif" font-size="14.00" fill="#000000">ConstructorVisitor</text>
<polyline fill="none" stroke="#000000" points="2194.8298,-338.3 2457.836,-338.3 "/>
<text text-anchor="start" x="2202.8298" y="-321.7" font-family="Times,serif" font-size="14.00" fill="#000000">+ ConstructorVisitor() : </text>
<polyline fill="none" stroke="#000000" points="2194.8298,-313.5 2457.836,-313.5 "/>
<text text-anchor="start" x="2202.8298" y="-296.9" font-family="Times,serif" font-size="14.00" fill="#000000">+ visit(ConstructorDeclaration, Void) : void</text>
</g>
<!-- FileVisitor -->
<g id="node9" class="node">
<title>FileVisitor</title>
<polygon fill="none" stroke="#000000" points="3148.4078,-4.9 3148.4078,-129.7 3584.258,-129.7 3584.258,-4.9 3148.4078,-4.9"/>
<text text-anchor="middle" x="3366.3329" y="-113.1" font-family="Times,serif" font-size="14.00" fill="#000000">FileVisitor</text>
<polyline fill="none" stroke="#000000" points="3148.4078,-104.9 3584.258,-104.9 "/>
<text text-anchor="start" x="3156.4078" y="-88.3" font-family="Times,serif" font-size="14.00" fill="#000000">+ FileVisitor(PackageNode, Path) : </text>
<polyline fill="none" stroke="#000000" points="3148.4078,-80.1 3584.258,-80.1 "/>
<text text-anchor="start" x="3156.4078" y="-63.5" font-family="Times,serif" font-size="14.00" fill="#000000">- populateCreatedObjects() : List&lt;String&gt;</text>
<text text-anchor="start" x="3156.4078" y="-46.7" font-family="Times,serif" font-size="14.00" fill="#000000"> + createAST() : LeafNode</text>
<text text-anchor="start" x="3156.4078" y="-29.9" font-family="Times,serif" font-size="14.00" fill="#000000"> - filterAssignedCreatedObjects(List&lt;String&gt;, List&lt;String&gt;) : List&lt;String&gt;</text>
<text text-anchor="start" x="3156.4078" y="-13.1" font-family="Times,serif" font-size="14.00" fill="#000000"> - getType(String) : String</text>
</g>
<!-- ConstructorVisitor&#45;&gt;FileVisitor -->
<g id="edge2" class="edge">
<title>ConstructorVisitor-&gt;FileVisitor</title>
<path fill="none" stroke="#820000" d="M2326.3329,-280.4417C2326.3329,-280.4417 2326.3329,-108 2326.3329,-108 2326.3329,-108 2843.3535,-108 3148.3148,-108"/>
<ellipse fill="none" stroke="#820000" cx="2326.3329" cy="-284.4417" rx="4" ry="4"/>
</g>
<!-- DemoApp -->
<g id="node3" class="node">
<title>DemoApp</title>
<polygon fill="none" stroke="#000000" points="4599.5637,-280.3 4599.5637,-371.5 4747.1021,-371.5 4747.1021,-280.3 4599.5637,-280.3"/>
<text text-anchor="middle" x="4673.3329" y="-354.9" font-family="Times,serif" font-size="14.00" fill="#000000">DemoApp</text>
<polyline fill="none" stroke="#000000" points="4599.5637,-346.7 4747.1021,-346.7 "/>
<text text-anchor="start" x="4607.5637" y="-330.1" font-family="Times,serif" font-size="14.00" fill="#000000">+ DemoApp() : </text>
<polyline fill="none" stroke="#000000" points="4599.5637,-321.9 4747.1021,-321.9 "/>
<text text-anchor="start" x="4607.5637" y="-305.3" font-family="Times,serif" font-size="14.00" fill="#000000">+ setUp() : void</text>
<text text-anchor="start" x="4607.5637" y="-288.5" font-family="Times,serif" font-size="14.00" fill="#000000"> + main(String[]) : void</text>
</g>
<!-- Directive -->
<g id="node4" class="node">
<title>Directive</title>
<polygon fill="none" stroke="#000000" points="4765.0633,-292.7 4765.0633,-359.1 4861.6025,-359.1 4861.6025,-292.7 4765.0633,-292.7"/>
<text text-anchor="middle" x="4813.3329" y="-342.5" font-family="Times,serif" font-size="14.00" fill="#000000">&lt;&lt;interface&gt;&gt;</text>
<text text-anchor="middle" x="4813.3329" y="-325.7" font-family="Times,serif" font-size="14.00" fill="#000000">Directive</text>
<polyline fill="none" stroke="#000000" points="4765.0633,-317.5 4861.6025,-317.5 "/>
<text text-anchor="middle" x="4813.3329" y="-300.9" font-family="Times,serif" font-size="14.00" fill="#000000"> </text>
</g>
<!-- DirectiveFactory -->
<g id="node5" class="node">
<title>DirectiveFactory</title>
<polygon fill="none" stroke="#000000" points="4879.6299,-288.7 4879.6299,-363.1 5099.0359,-363.1 5099.0359,-288.7 4879.6299,-288.7"/>
<text text-anchor="middle" x="4989.3329" y="-346.5" font-family="Times,serif" font-size="14.00" fill="#000000">DirectiveFactory</text>
<polyline fill="none" stroke="#000000" points="4879.6299,-338.3 5099.0359,-338.3 "/>
<text text-anchor="start" x="4887.6299" y="-321.7" font-family="Times,serif" font-size="14.00" fill="#000000">+ DirectiveFactory() : </text>
<polyline fill="none" stroke="#000000" points="4879.6299,-313.5 5099.0359,-313.5 "/>
<text text-anchor="start" x="4887.6299" y="-296.9" font-family="Times,serif" font-size="14.00" fill="#000000">+ createDirective(String) : Directive</text>
</g>
<!-- DirectiveParser -->
<g id="node6" class="node">
<title>DirectiveParser</title>
<polygon fill="none" stroke="#000000" points="5117.3139,-288.7 5117.3139,-363.1 5311.3519,-363.1 5311.3519,-288.7 5117.3139,-288.7"/>
<text text-anchor="middle" x="5214.3329" y="-346.5" font-family="Times,serif" font-size="14.00" fill="#000000">DirectiveParser</text>
<polyline fill="none" stroke="#000000" points="5117.3139,-338.3 5311.3519,-338.3 "/>
<text text-anchor="start" x="5125.3139" y="-321.7" font-family="Times,serif" font-size="14.00" fill="#000000">+ DirectiveParser(String) : </text>
<polyline fill="none" stroke="#000000" points="5117.3139,-313.5 5311.3519,-313.5 "/>
<text text-anchor="start" x="5125.3139" y="-296.9" font-family="Times,serif" font-size="14.00" fill="#000000">+ parse() : Map&lt;String, String&gt;</text>
</g>
<!-- EnumVisitor -->
<g id="node7" class="node">
<title>EnumVisitor</title>
<polygon fill="none" stroke="#000000" points="2476.1573,-288.7 2476.1573,-363.1 2706.5085,-363.1 2706.5085,-288.7 2476.1573,-288.7"/>
<text text-anchor="middle" x="2591.3329" y="-346.5" font-family="Times,serif" font-size="14.00" fill="#000000">EnumVisitor</text>
<polyline fill="none" stroke="#000000" points="2476.1573,-338.3 2706.5085,-338.3 "/>
<text text-anchor="start" x="2484.1573" y="-321.7" font-family="Times,serif" font-size="14.00" fill="#000000">+ EnumVisitor() : </text>
<polyline fill="none" stroke="#000000" points="2476.1573,-313.5 2706.5085,-313.5 "/>
<text text-anchor="start" x="2484.1573" y="-296.9" font-family="Times,serif" font-size="14.00" fill="#000000">+ visit(EnumDeclaration, Void) : void</text>
</g>
<!-- EnumVisitor&#45;&gt;FileVisitor -->
<g id="edge3" class="edge">
<title>EnumVisitor-&gt;FileVisitor</title>
<path fill="none" stroke="#820000" d="M2591.3329,-280.6808C2591.3329,-280.6808 2591.3329,-115 2591.3329,-115 2591.3329,-115 2919.1641,-115 3148.3898,-115"/>
<ellipse fill="none" stroke="#820000" cx="2591.3329" cy="-284.6808" rx="4" ry="4"/>
</g>
<!-- FieldVisitor -->
<g id="node8" class="node">
<title>FieldVisitor</title>
<polygon fill="none" stroke="#000000" points="2724.4897,-288.7 2724.4897,-363.1 2950.1761,-363.1 2950.1761,-288.7 2724.4897,-288.7"/>
<text text-anchor="middle" x="2837.3329" y="-346.5" font-family="Times,serif" font-size="14.00" fill="#000000">FieldVisitor</text>
<polyline fill="none" stroke="#000000" points="2724.4897,-338.3 2950.1761,-338.3 "/>
<text text-anchor="start" x="2732.4897" y="-321.7" font-family="Times,serif" font-size="14.00" fill="#000000">+ FieldVisitor() : </text>
<polyline fill="none" stroke="#000000" points="2724.4897,-313.5 2950.1761,-313.5 "/>
<text text-anchor="start" x="2732.4897" y="-296.9" font-family="Times,serif" font-size="14.00" fill="#000000">+ visit(FieldDeclaration, Void) : void</text>
</g>
<!-- FieldVisitor&#45;&gt;FileVisitor -->
<g id="edge4" class="edge">
<title>FieldVisitor-&gt;FileVisitor</title>
<path fill="none" stroke="#820000" d="M2837.3329,-280.5016C2837.3329,-280.5016 2837.3329,-122 2837.3329,-122 2837.3329,-122 3002.3952,-122 3148.1142,-122"/>
<ellipse fill="none" stroke="#820000" cx="2837.3329" cy="-284.5016" rx="4" ry="4"/>
</g>
<!-- HappyPathTestCase -->
<g id="node10" class="node">
<title>HappyPathTestCase</title>
<polygon fill="none" stroke="#000000" points="5329.0362,-209.1 5329.0362,-442.7 5685.6296,-442.7 5685.6296,-209.1 5329.0362,-209.1"/>
<text text-anchor="middle" x="5507.3329" y="-426.1" font-family="Times,serif" font-size="14.00" fill="#000000">HappyPathTestCase</text>
<polyline fill="none" stroke="#000000" points="5329.0362,-417.9 5685.6296,-417.9 "/>
<text text-anchor="start" x="5337.0362" y="-401.3" font-family="Times,serif" font-size="14.00" fill="#000000">+ HappyPathTestCase(String, String, String, List&lt;String&gt;) : </text>
<polyline fill="none" stroke="#000000" points="5329.0362,-393.1 5685.6296,-393.1 "/>
<text text-anchor="start" x="5337.0362" y="-376.5" font-family="Times,serif" font-size="14.00" fill="#000000">- methodToTest : String</text>
<text text-anchor="start" x="5337.0362" y="-359.7" font-family="Times,serif" font-size="14.00" fill="#000000"> - testType : String</text>
<text text-anchor="start" x="5337.0362" y="-342.9" font-family="Times,serif" font-size="14.00" fill="#000000"> - directives : List&lt;String&gt;</text>
<text text-anchor="start" x="5337.0362" y="-326.1" font-family="Times,serif" font-size="14.00" fill="#000000"> - testName : String</text>
<text text-anchor="start" x="5337.0362" y="-309.3" font-family="Times,serif" font-size="14.00" fill="#000000"> - classToTest : String</text>
<polyline fill="none" stroke="#000000" points="5329.0362,-301.1 5685.6296,-301.1 "/>
<text text-anchor="start" x="5337.0362" y="-284.5" font-family="Times,serif" font-size="14.00" fill="#000000">directives : List&lt;String&gt;</text>
<text text-anchor="start" x="5337.0362" y="-267.7" font-family="Times,serif" font-size="14.00" fill="#000000"> classToTest : String</text>
<text text-anchor="start" x="5337.0362" y="-250.9" font-family="Times,serif" font-size="14.00" fill="#000000"> methodToTest : String</text>
<text text-anchor="start" x="5337.0362" y="-234.1" font-family="Times,serif" font-size="14.00" fill="#000000"> testName : String</text>
<text text-anchor="start" x="5337.0362" y="-217.3" font-family="Times,serif" font-size="14.00" fill="#000000"> testType : String</text>
</g>
<!-- TestCase -->
<g id="node29" class="node">
<title>TestCase</title>
<polygon fill="none" stroke="#000000" points="5616.7812,-.5 5616.7812,-134.1 5769.8846,-134.1 5769.8846,-.5 5616.7812,-.5"/>
<text text-anchor="middle" x="5693.3329" y="-117.5" font-family="Times,serif" font-size="14.00" fill="#000000">&lt;&lt;interface&gt;&gt;</text>
<text text-anchor="middle" x="5693.3329" y="-100.7" font-family="Times,serif" font-size="14.00" fill="#000000">TestCase</text>
<polyline fill="none" stroke="#000000" points="5616.7812,-92.5 5769.8846,-92.5 "/>
<text text-anchor="start" x="5624.7812" y="-75.9" font-family="Times,serif" font-size="14.00" fill="#000000">directives : List&lt;String&gt;</text>
<text text-anchor="start" x="5624.7812" y="-59.1" font-family="Times,serif" font-size="14.00" fill="#000000"> classToTest : String</text>
<text text-anchor="start" x="5624.7812" y="-42.3" font-family="Times,serif" font-size="14.00" fill="#000000"> methodToTest : String</text>
<text text-anchor="start" x="5624.7812" y="-25.5" font-family="Times,serif" font-size="14.00" fill="#000000"> testName : String</text>
<text text-anchor="start" x="5624.7812" y="-8.7" font-family="Times,serif" font-size="14.00" fill="#000000"> testType : String</text>
</g>
<!-- HappyPathTestCase&#45;&gt;TestCase -->
<g id="edge5" class="edge">
<title>HappyPathTestCase-&gt;TestCase</title>
<path fill="none" stroke="#008200" stroke-dasharray="5,2" d="M5651.2054,-209.0834C5651.2054,-209.0834 5651.2054,-144.1061 5651.2054,-144.1061"/>
<polygon fill="#008200" stroke="#008200" points="5654.7055,-144.106 5651.2054,-134.1061 5647.7055,-144.1061 5654.7055,-144.106"/>
</g>
<!-- IRelationshipIdentifier -->
<g id="node11" class="node">
<title>IRelationshipIdentifier</title>
<polygon fill="none" stroke="#000000" points="6070.8032,-25.7 6070.8032,-108.9 6921.8626,-108.9 6921.8626,-25.7 6070.8032,-25.7"/>
<text text-anchor="middle" x="6496.3329" y="-92.3" font-family="Times,serif" font-size="14.00" fill="#000000">&lt;&lt;interface&gt;&gt;</text>
<text text-anchor="middle" x="6496.3329" y="-75.5" font-family="Times,serif" font-size="14.00" fill="#000000">IRelationshipIdentifier</text>
<polyline fill="none" stroke="#000000" points="6070.8032,-67.3 6921.8626,-67.3 "/>
<text text-anchor="start" x="6078.8032" y="-50.7" font-family="Times,serif" font-size="14.00" fill="#000000">+ createLeafNodesRelationships(Map&lt;Path, PackageNode&gt;) : Map&lt;LeafNode, Set&lt;Relationship&lt;LeafNode&gt;&gt;&gt;</text>
<text text-anchor="start" x="6078.8032" y="-33.9" font-family="Times,serif" font-size="14.00" fill="#000000"> + identifyPackageNodeRelationships(Map&lt;LeafNode, Set&lt;Relationship&lt;LeafNode&gt;&gt;&gt;) : Map&lt;PackageNode, Set&lt;Relationship&lt;PackageNode&gt;&gt;&gt;</text>
</g>
<!-- ImportVisitor -->
<g id="node12" class="node">
<title>ImportVisitor</title>
<polygon fill="none" stroke="#000000" points="2967.8277,-288.7 2967.8277,-363.1 3202.8381,-363.1 3202.8381,-288.7 2967.8277,-288.7"/>
<text text-anchor="middle" x="3085.3329" y="-346.5" font-family="Times,serif" font-size="14.00" fill="#000000">ImportVisitor</text>
<polyline fill="none" stroke="#000000" points="2967.8277,-338.3 3202.8381,-338.3 "/>
<text text-anchor="start" x="2975.8277" y="-321.7" font-family="Times,serif" font-size="14.00" fill="#000000">+ ImportVisitor() : </text>
<polyline fill="none" stroke="#000000" points="2967.8277,-313.5 3202.8381,-313.5 "/>
<text text-anchor="start" x="2975.8277" y="-296.9" font-family="Times,serif" font-size="14.00" fill="#000000">+ visit(ImportDeclaration, Void) : void</text>
</g>
<!-- ImportVisitor&#45;&gt;FileVisitor -->
<g id="edge6" class="edge">
<title>ImportVisitor-&gt;FileVisitor</title>
<path fill="none" stroke="#820000" d="M3175.6229,-280.5735C3175.6229,-280.5735 3175.6229,-129.8602 3175.6229,-129.8602"/>
<ellipse fill="none" stroke="#820000" cx="3175.623" cy="-284.5735" rx="4" ry="4"/>
</g>
<!-- InheritanceVisitor -->
<g id="node13" class="node">
<title>InheritanceVisitor</title>
<polygon fill="none" stroke="#000000" points="3220.4644,-288.7 3220.4644,-363.1 3512.2014,-363.1 3512.2014,-288.7 3220.4644,-288.7"/>
<text text-anchor="middle" x="3366.3329" y="-346.5" font-family="Times,serif" font-size="14.00" fill="#000000">InheritanceVisitor</text>
<polyline fill="none" stroke="#000000" points="3220.4644,-338.3 3512.2014,-338.3 "/>
<text text-anchor="start" x="3228.4644" y="-321.7" font-family="Times,serif" font-size="14.00" fill="#000000">+ InheritanceVisitor() : </text>
<polyline fill="none" stroke="#000000" points="3220.4644,-313.5 3512.2014,-313.5 "/>
<text text-anchor="start" x="3228.4644" y="-296.9" font-family="Times,serif" font-size="14.00" fill="#000000">+ visit(ClassOrInterfaceDeclaration, Void) : void</text>
</g>
<!-- InheritanceVisitor&#45;&gt;FileVisitor -->
<g id="edge7" class="edge">
<title>InheritanceVisitor-&gt;FileVisitor</title>
<path fill="none" stroke="#820000" d="M3366.3329,-280.5735C3366.3329,-280.5735 3366.3329,-129.8602 3366.3329,-129.8602"/>
<ellipse fill="none" stroke="#820000" cx="3366.3329" cy="-284.5735" rx="4" ry="4"/>
</g>
<!-- MainEngine -->
<g id="node14" class="node">
<title>MainEngine</title>
<polygon fill="none" stroke="#000000" points="6938.1389,-196.7 6938.1389,-455.1 8070.5269,-455.1 8070.5269,-196.7 6938.1389,-196.7"/>
<text text-anchor="middle" x="7504.3329" y="-438.5" font-family="Times,serif" font-size="14.00" fill="#000000">MainEngine</text>
<polyline fill="none" stroke="#000000" points="6938.1389,-430.3 8070.5269,-430.3 "/>
<text text-anchor="start" x="6946.1389" y="-413.7" font-family="Times,serif" font-size="14.00" fill="#000000">+ MainEngine(Path, String) : </text>
<polyline fill="none" stroke="#000000" points="6938.1389,-405.5 8070.5269,-405.5 "/>
<text text-anchor="start" x="6946.1389" y="-388.9" font-family="Times,serif" font-size="14.00" fill="#000000">- projectRepresentation : ProjectRepresentation</text>
<text text-anchor="start" x="6946.1389" y="-372.1" font-family="Times,serif" font-size="14.00" fill="#000000"> - leafNodeRelationships : Map&lt;LeafNode, Set&lt;Relationship&lt;LeafNode&gt;&gt;&gt;</text>
<text text-anchor="start" x="6946.1389" y="-355.3" font-family="Times,serif" font-size="14.00" fill="#000000"> - packageNodes : Map&lt;Path, PackageNode&gt;</text>
<text text-anchor="start" x="6946.1389" y="-338.5" font-family="Times,serif" font-size="14.00" fill="#000000"> - packageNodeRelationships : Map&lt;PackageNode, Set&lt;Relationship&lt;PackageNode&gt;&gt;&gt;</text>
<polyline fill="none" stroke="#000000" points="6938.1389,-330.3 8070.5269,-330.3 "/>
<text text-anchor="start" x="6946.1389" y="-313.7" font-family="Times,serif" font-size="14.00" fill="#000000">+ buildProjectRepresentation(String, Map&lt;Path, PackageNode&gt;, Map&lt;PackageNode, Set&lt;Relationship&lt;PackageNode&gt;&gt;&gt;, Map&lt;LeafNode, Set&lt;Relationship&lt;LeafNode&gt;&gt;&gt;) : ProjectRepresentation</text>
<text text-anchor="start" x="6946.1389" y="-296.9" font-family="Times,serif" font-size="14.00" fill="#000000"> + buildClassRepresentation(LeafNode, Map&lt;LeafNode, Set&lt;Relationship&lt;LeafNode&gt;&gt;&gt;) : ClassRepresentation</text>
<text text-anchor="start" x="6946.1389" y="-280.1" font-family="Times,serif" font-size="14.00" fill="#000000"> + buildMethodRepresentation(Method, Set&lt;Relationship&lt;LeafNode&gt;&gt;, List&lt;String&gt;) : MethodRepresentation</text>
<polyline fill="none" stroke="#000000" points="6938.1389,-271.9 8070.5269,-271.9 "/>
<text text-anchor="start" x="6946.1389" y="-255.3" font-family="Times,serif" font-size="14.00" fill="#000000">packageNodes : Map&lt;Path, PackageNode&gt;</text>
<text text-anchor="start" x="6946.1389" y="-238.5" font-family="Times,serif" font-size="14.00" fill="#000000"> projectRepresentation : ProjectRepresentation</text>
<text text-anchor="start" x="6946.1389" y="-221.7" font-family="Times,serif" font-size="14.00" fill="#000000"> packageNodeRelationships : Map&lt;PackageNode, Set&lt;Relationship&lt;PackageNode&gt;&gt;&gt;</text>
<text text-anchor="start" x="6946.1389" y="-204.9" font-family="Times,serif" font-size="14.00" fill="#000000"> leafNodeRelationships : Map&lt;LeafNode, Set&lt;Relationship&lt;LeafNode&gt;&gt;&gt;</text>
</g>
<!-- MemberVisitor -->
<g id="node15" class="node">
<title>MemberVisitor</title>
<polygon fill="none" stroke="#000000" points="3529.9157,-280.3 3529.9157,-371.5 3770.7501,-371.5 3770.7501,-280.3 3529.9157,-280.3"/>
<text text-anchor="middle" x="3650.3329" y="-354.9" font-family="Times,serif" font-size="14.00" fill="#000000">MemberVisitor</text>
<polyline fill="none" stroke="#000000" points="3529.9157,-346.7 3770.7501,-346.7 "/>
<text text-anchor="start" x="3537.9157" y="-330.1" font-family="Times,serif" font-size="14.00" fill="#000000">+ MemberVisitor() : </text>
<polyline fill="none" stroke="#000000" points="3529.9157,-321.9 3770.7501,-321.9 "/>
<text text-anchor="start" x="3537.9157" y="-305.3" font-family="Times,serif" font-size="14.00" fill="#000000">+ visit(EnumDeclaration, Void) : void</text>
<text text-anchor="start" x="3537.9157" y="-288.5" font-family="Times,serif" font-size="14.00" fill="#000000"> + visit(RecordDeclaration, Void) : void</text>
</g>
<!-- MemberVisitor&#45;&gt;FileVisitor -->
<g id="edge8" class="edge">
<title>MemberVisitor-&gt;FileVisitor</title>
<path fill="none" stroke="#820000" d="M3557.0869,-272.2628C3557.0869,-272.2628 3557.0869,-129.9411 3557.0869,-129.9411"/>
<ellipse fill="none" stroke="#820000" cx="3557.0869" cy="-276.2628" rx="4" ry="4"/>
</g>
<!-- MethodNotFoundException -->
<g id="node16" class="node">
<title>MethodNotFoundException</title>
<polygon fill="none" stroke="#000000" points="8088.8712,-301.1 8088.8712,-350.7 8327.7946,-350.7 8327.7946,-301.1 8088.8712,-301.1"/>
<text text-anchor="middle" x="8208.3329" y="-334.1" font-family="Times,serif" font-size="14.00" fill="#000000">MethodNotFoundException</text>
<polyline fill="none" stroke="#000000" points="8088.8712,-325.9 8327.7946,-325.9 "/>
<text text-anchor="start" x="8096.8712" y="-309.3" font-family="Times,serif" font-size="14.00" fill="#000000">+ MethodNotFoundException(String) : </text>
</g>
<!-- MethodRepresentation -->
<g id="node17" class="node">
<title>MethodRepresentation</title>
<polygon fill="none" stroke="#000000" points="830.5503,-196.7 830.5503,-455.1 1590.1155,-455.1 1590.1155,-196.7 830.5503,-196.7"/>
<text text-anchor="middle" x="1210.3329" y="-438.5" font-family="Times,serif" font-size="14.00" fill="#000000">MethodRepresentation</text>
<polyline fill="none" stroke="#000000" points="830.5503,-430.3 1590.1155,-430.3 "/>
<text text-anchor="start" x="838.5503" y="-413.7" font-family="Times,serif" font-size="14.00" fill="#000000">+ MethodRepresentation(String, String, Map&lt;String, String&gt;, List&lt;ModifierType&gt;, Set&lt;Relationship&lt;LeafNode&gt;&gt;, List&lt;String&gt;) : </text>
<polyline fill="none" stroke="#000000" points="830.5503,-405.5 1590.1155,-405.5 "/>
<text text-anchor="start" x="838.5503" y="-388.9" font-family="Times,serif" font-size="14.00" fill="#000000">- modifiers : List&lt;ModifierType&gt;</text>
<text text-anchor="start" x="838.5503" y="-372.1" font-family="Times,serif" font-size="14.00" fill="#000000"> - returnType : String</text>
<text text-anchor="start" x="838.5503" y="-355.3" font-family="Times,serif" font-size="14.00" fill="#000000"> - relationships : Set&lt;Relationship&lt;LeafNode&gt;&gt;</text>
<text text-anchor="start" x="838.5503" y="-338.5" font-family="Times,serif" font-size="14.00" fill="#000000"> - methodName : String</text>
<text text-anchor="start" x="838.5503" y="-321.7" font-family="Times,serif" font-size="14.00" fill="#000000"> - parameters : Map&lt;String, String&gt;</text>
<polyline fill="none" stroke="#000000" points="830.5503,-313.5 1590.1155,-313.5 "/>
<text text-anchor="start" x="838.5503" y="-296.9" font-family="Times,serif" font-size="14.00" fill="#000000">+ toString() : String</text>
<polyline fill="none" stroke="#000000" points="830.5503,-288.7 1590.1155,-288.7 "/>
<text text-anchor="start" x="838.5503" y="-272.1" font-family="Times,serif" font-size="14.00" fill="#000000">parameters : Map&lt;String, String&gt;</text>
<text text-anchor="start" x="838.5503" y="-255.3" font-family="Times,serif" font-size="14.00" fill="#000000"> methodName : String</text>
<text text-anchor="start" x="838.5503" y="-238.5" font-family="Times,serif" font-size="14.00" fill="#000000"> modifiers : List&lt;ModifierType&gt;</text>
<text text-anchor="start" x="838.5503" y="-221.7" font-family="Times,serif" font-size="14.00" fill="#000000"> returnType : String</text>
<text text-anchor="start" x="838.5503" y="-204.9" font-family="Times,serif" font-size="14.00" fill="#000000"> relationships : Set&lt;Relationship&lt;LeafNode&gt;&gt;</text>
</g>
<!-- MethodRepresentation&#45;&gt;SrcElement -->
<g id="edge9" class="edge">
<title>MethodRepresentation-&gt;SrcElement</title>
<path fill="none" stroke="#008200" stroke-dasharray="5,2" d="M1226.4228,-196.6C1226.4228,-196.6 1226.4228,-110.578 1226.4228,-110.578"/>
<polygon fill="#008200" stroke="#008200" points="1229.9229,-110.578 1226.4228,-100.578 1222.9229,-110.5781 1229.9229,-110.578"/>
</g>
<!-- MethodVisitor -->
<g id="node18" class="node">
<title>MethodVisitor</title>
<polygon fill="none" stroke="#000000" points="3789.104,-288.7 3789.104,-363.1 4029.5618,-363.1 4029.5618,-288.7 3789.104,-288.7"/>
<text text-anchor="middle" x="3909.3329" y="-346.5" font-family="Times,serif" font-size="14.00" fill="#000000">MethodVisitor</text>
<polyline fill="none" stroke="#000000" points="3789.104,-338.3 4029.5618,-338.3 "/>
<text text-anchor="start" x="3797.104" y="-321.7" font-family="Times,serif" font-size="14.00" fill="#000000">+ MethodVisitor() : </text>
<polyline fill="none" stroke="#000000" points="3789.104,-313.5 4029.5618,-313.5 "/>
<text text-anchor="start" x="3797.104" y="-296.9" font-family="Times,serif" font-size="14.00" fill="#000000">+ visit(MethodDeclaration, Void) : void</text>
</g>
<!-- MethodVisitor&#45;&gt;FileVisitor -->
<g id="edge10" class="edge">
<title>MethodVisitor-&gt;FileVisitor</title>
<path fill="none" stroke="#820000" d="M3909.3329,-280.5221C3909.3329,-280.5221 3909.3329,-98 3909.3329,-98 3909.3329,-98 3735.43,-98 3584.4538,-98"/>
<ellipse fill="none" stroke="#820000" cx="3909.3329" cy="-284.5221" rx="4" ry="4"/>
</g>
<!-- ObjectCreationVisitor -->
<g id="node19" class="node">
<title>ObjectCreationVisitor</title>
<polygon fill="none" stroke="#000000" points="4047.1587,-288.7 4047.1587,-363.1 4291.5071,-363.1 4291.5071,-288.7 4047.1587,-288.7"/>
<text text-anchor="middle" x="4169.3329" y="-346.5" font-family="Times,serif" font-size="14.00" fill="#000000">ObjectCreationVisitor</text>
<polyline fill="none" stroke="#000000" points="4047.1587,-338.3 4291.5071,-338.3 "/>
<text text-anchor="start" x="4055.1587" y="-321.7" font-family="Times,serif" font-size="14.00" fill="#000000">+ ObjectCreationVisitor() : </text>
<polyline fill="none" stroke="#000000" points="4047.1587,-313.5 4291.5071,-313.5 "/>
<text text-anchor="start" x="4055.1587" y="-296.9" font-family="Times,serif" font-size="14.00" fill="#000000">+ visit(ObjectCreationExpr, Void) : void</text>
</g>
<!-- ObjectCreationVisitor&#45;&gt;FileVisitor -->
<g id="edge11" class="edge">
<title>ObjectCreationVisitor-&gt;FileVisitor</title>
<path fill="none" stroke="#820000" d="M4169.3329,-280.5302C4169.3329,-280.5302 4169.3329,-67 4169.3329,-67 4169.3329,-67 3822.2219,-67 3584.4306,-67"/>
<ellipse fill="none" stroke="#820000" cx="4169.3329" cy="-284.5302" rx="4" ry="4"/>
</g>
<!-- PackageNodeCleaner -->
<g id="node20" class="node">
<title>PackageNodeCleaner</title>
<polygon fill="none" stroke="#000000" points="8345.9844,-280.3 8345.9844,-371.5 8842.6814,-371.5 8842.6814,-280.3 8345.9844,-280.3"/>
<text text-anchor="middle" x="8594.3329" y="-354.9" font-family="Times,serif" font-size="14.00" fill="#000000">PackageNodeCleaner</text>
<polyline fill="none" stroke="#000000" points="8345.9844,-346.7 8842.6814,-346.7 "/>
<text text-anchor="start" x="8353.9844" y="-330.1" font-family="Times,serif" font-size="14.00" fill="#000000">+ PackageNodeCleaner() : </text>
<polyline fill="none" stroke="#000000" points="8345.9844,-321.9 8842.6814,-321.9 "/>
<text text-anchor="start" x="8353.9844" y="-305.3" font-family="Times,serif" font-size="14.00" fill="#000000">+ removeNonPackageNodes(Map&lt;Path, PackageNode&gt;) : Map&lt;Path, PackageNode&gt;</text>
<text text-anchor="start" x="8353.9844" y="-288.5" font-family="Times,serif" font-size="14.00" fill="#000000"> - isPackageNodeValid(PackageNode) : boolean</text>
</g>
<!-- Parser -->
<g id="node21" class="node">
<title>Parser</title>
<polygon fill="none" stroke="#000000" points="8860.8032,-17.3 8860.8032,-117.3 9711.8626,-117.3 9711.8626,-17.3 8860.8032,-17.3"/>
<text text-anchor="middle" x="9286.3329" y="-100.7" font-family="Times,serif" font-size="14.00" fill="#000000">&lt;&lt;interface&gt;&gt;</text>
<text text-anchor="middle" x="9286.3329" y="-83.9" font-family="Times,serif" font-size="14.00" fill="#000000">Parser</text>
<polyline fill="none" stroke="#000000" points="8860.8032,-75.7 9711.8626,-75.7 "/>
<text text-anchor="start" x="8868.8032" y="-59.1" font-family="Times,serif" font-size="14.00" fill="#000000">+ parseSourcePackage(Path) : Map&lt;Path, PackageNode&gt;</text>
<text text-anchor="start" x="8868.8032" y="-42.3" font-family="Times,serif" font-size="14.00" fill="#000000"> + identifyPackageNodeRelationships(Map&lt;LeafNode, Set&lt;Relationship&lt;LeafNode&gt;&gt;&gt;) : Map&lt;PackageNode, Set&lt;Relationship&lt;PackageNode&gt;&gt;&gt;</text>
<text text-anchor="start" x="8868.8032" y="-25.5" font-family="Times,serif" font-size="14.00" fill="#000000"> + createRelationships(Map&lt;Path, PackageNode&gt;) : Map&lt;LeafNode, Set&lt;Relationship&lt;LeafNode&gt;&gt;&gt;</text>
</g>
<!-- ParserType -->
<g id="node22" class="node">
<title>ParserType</title>
<polygon fill="none" stroke="#000000" points="9730.0016,-271.9 9730.0016,-379.9 9920.6642,-379.9 9920.6642,-271.9 9730.0016,-271.9"/>
<text text-anchor="middle" x="9825.3329" y="-363.3" font-family="Times,serif" font-size="14.00" fill="#000000">&lt;&lt;enumeration&gt;&gt;</text>
<text text-anchor="middle" x="9825.3329" y="-346.5" font-family="Times,serif" font-size="14.00" fill="#000000">ParserType</text>
<polyline fill="none" stroke="#000000" points="9730.0016,-338.3 9920.6642,-338.3 "/>
<text text-anchor="start" x="9738.0016" y="-321.7" font-family="Times,serif" font-size="14.00" fill="#000000">+ ParserType() : </text>
<polyline fill="none" stroke="#000000" points="9730.0016,-313.5 9920.6642,-313.5 "/>
<text text-anchor="start" x="9738.0016" y="-296.9" font-family="Times,serif" font-size="14.00" fill="#000000">+ valueOf(String) : ParserType</text>
<text text-anchor="start" x="9738.0016" y="-280.1" font-family="Times,serif" font-size="14.00" fill="#000000"> + values() : ParserType[]</text>
</g>
<!-- ProjectParser -->
<g id="node23" class="node">
<title>ProjectParser</title>
<polygon fill="none" stroke="#000000" points="8860.8032,-255.1 8860.8032,-396.7 9711.8626,-396.7 9711.8626,-255.1 8860.8032,-255.1"/>
<text text-anchor="middle" x="9286.3329" y="-380.1" font-family="Times,serif" font-size="14.00" fill="#000000">ProjectParser</text>
<polyline fill="none" stroke="#000000" points="8860.8032,-371.9 9711.8626,-371.9 "/>
<text text-anchor="start" x="8868.8032" y="-355.3" font-family="Times,serif" font-size="14.00" fill="#000000">+ ProjectParser() : </text>
<polyline fill="none" stroke="#000000" points="8860.8032,-347.1 9711.8626,-347.1 "/>
<text text-anchor="start" x="8868.8032" y="-330.5" font-family="Times,serif" font-size="14.00" fill="#000000">+ parseSourcePackage(Path) : Map&lt;Path, PackageNode&gt;</text>
<text text-anchor="start" x="8868.8032" y="-313.7" font-family="Times,serif" font-size="14.00" fill="#000000"> + createRelationships(Map&lt;Path, PackageNode&gt;) : Map&lt;LeafNode, Set&lt;Relationship&lt;LeafNode&gt;&gt;&gt;</text>
<text text-anchor="start" x="8868.8032" y="-296.9" font-family="Times,serif" font-size="14.00" fill="#000000"> + identifyPackageNodeRelationships(Map&lt;LeafNode, Set&lt;Relationship&lt;LeafNode&gt;&gt;&gt;) : Map&lt;PackageNode, Set&lt;Relationship&lt;PackageNode&gt;&gt;&gt;</text>
<text text-anchor="start" x="8868.8032" y="-280.1" font-family="Times,serif" font-size="14.00" fill="#000000"> - isJavaSourceFile(Path) : boolean</text>
<text text-anchor="start" x="8868.8032" y="-263.3" font-family="Times,serif" font-size="14.00" fill="#000000"> - parseFolder(PackageNode) : void</text>
</g>
<!-- ProjectParser&#45;&gt;Parser -->
<g id="edge12" class="edge">
<title>ProjectParser-&gt;Parser</title>
<path fill="none" stroke="#008200" stroke-dasharray="5,2" d="M9286.3329,-254.8944C9286.3329,-254.8944 9286.3329,-127.6611 9286.3329,-127.6611"/>
<polygon fill="#008200" stroke="#008200" points="9289.833,-127.661 9286.3329,-117.6611 9282.833,-127.6611 9289.833,-127.661"/>
</g>
<!-- ProjectParserFactory -->
<g id="node24" class="node">
<title>ProjectParserFactory</title>
<polygon fill="none" stroke="#000000" points="9939.1481,-288.7 9939.1481,-363.1 10193.5177,-363.1 10193.5177,-288.7 9939.1481,-288.7"/>
<text text-anchor="middle" x="10066.3329" y="-346.5" font-family="Times,serif" font-size="14.00" fill="#000000">ProjectParserFactory</text>
<polyline fill="none" stroke="#000000" points="9939.1481,-338.3 10193.5177,-338.3 "/>
<text text-anchor="start" x="9947.1481" y="-321.7" font-family="Times,serif" font-size="14.00" fill="#000000">+ ProjectParserFactory() : </text>
<polyline fill="none" stroke="#000000" points="9939.1481,-313.5 10193.5177,-313.5 "/>
<text text-anchor="start" x="9947.1481" y="-296.9" font-family="Times,serif" font-size="14.00" fill="#000000">+ createProjectParser(ParserType) : Parser</text>
</g>
<!-- ProjectRepresentation -->
<g id="node25" class="node">
<title>ProjectRepresentation</title>
<polygon fill="none" stroke="#000000" points="1608.0688,-221.9 1608.0688,-429.9 2176.597,-429.9 2176.597,-221.9 1608.0688,-221.9"/>
<text text-anchor="middle" x="1892.3329" y="-413.3" font-family="Times,serif" font-size="14.00" fill="#000000">ProjectRepresentation</text>
<polyline fill="none" stroke="#000000" points="1608.0688,-405.1 2176.597,-405.1 "/>
<text text-anchor="start" x="1616.0688" y="-388.5" font-family="Times,serif" font-size="14.00" fill="#000000">+ ProjectRepresentation(String, List&lt;ClassRepresentation&gt;, Set&lt;Relationship&lt;PackageNode&gt;&gt;) : </text>
<polyline fill="none" stroke="#000000" points="1608.0688,-380.3 2176.597,-380.3 "/>
<text text-anchor="start" x="1616.0688" y="-363.7" font-family="Times,serif" font-size="14.00" fill="#000000">- projectName : String</text>
<text text-anchor="start" x="1616.0688" y="-346.9" font-family="Times,serif" font-size="14.00" fill="#000000"> - classes : List&lt;ClassRepresentation&gt;</text>
<text text-anchor="start" x="1616.0688" y="-330.1" font-family="Times,serif" font-size="14.00" fill="#000000"> - relationships : Set&lt;Relationship&lt;PackageNode&gt;&gt;</text>
<polyline fill="none" stroke="#000000" points="1608.0688,-321.9 2176.597,-321.9 "/>
<text text-anchor="start" x="1616.0688" y="-305.3" font-family="Times,serif" font-size="14.00" fill="#000000">+ toString() : String</text>
<text text-anchor="start" x="1616.0688" y="-288.5" font-family="Times,serif" font-size="14.00" fill="#000000"> + findClass(String) : ClassRepresentation</text>
<polyline fill="none" stroke="#000000" points="1608.0688,-280.3 2176.597,-280.3 "/>
<text text-anchor="start" x="1616.0688" y="-263.7" font-family="Times,serif" font-size="14.00" fill="#000000">classes : List&lt;ClassRepresentation&gt;</text>
<text text-anchor="start" x="1616.0688" y="-246.9" font-family="Times,serif" font-size="14.00" fill="#000000"> relationships : Set&lt;Relationship&lt;PackageNode&gt;&gt;</text>
<text text-anchor="start" x="1616.0688" y="-230.1" font-family="Times,serif" font-size="14.00" fill="#000000"> projectName : String</text>
</g>
<!-- ProjectRepresentation&#45;&gt;SrcElement -->
<g id="edge13" class="edge">
<title>ProjectRepresentation-&gt;SrcElement</title>
<path fill="none" stroke="#008200" stroke-dasharray="5,2" d="M1892.3329,-221.7146C1892.3329,-149.7731 1892.3329,-67 1892.3329,-67 1892.3329,-67 1268.8339,-67 1268.8339,-67"/>
<polygon fill="#008200" stroke="#008200" points="1268.834,-63.5001 1258.8339,-67 1268.8339,-70.5001 1268.834,-63.5001"/>
</g>
<!-- RainyDayTestCase -->
<g id="node26" class="node">
<title>RainyDayTestCase</title>
<polygon fill="none" stroke="#000000" points="5703.7592,-209.1 5703.7592,-442.7 6054.9066,-442.7 6054.9066,-209.1 5703.7592,-209.1"/>
<text text-anchor="middle" x="5879.3329" y="-426.1" font-family="Times,serif" font-size="14.00" fill="#000000">RainyDayTestCase</text>
<polyline fill="none" stroke="#000000" points="5703.7592,-417.9 6054.9066,-417.9 "/>
<text text-anchor="start" x="5711.7592" y="-401.3" font-family="Times,serif" font-size="14.00" fill="#000000">+ RainyDayTestCase(String, String, String, List&lt;String&gt;) : </text>
<polyline fill="none" stroke="#000000" points="5703.7592,-393.1 6054.9066,-393.1 "/>
<text text-anchor="start" x="5711.7592" y="-376.5" font-family="Times,serif" font-size="14.00" fill="#000000">- classToTest : String</text>
<text text-anchor="start" x="5711.7592" y="-359.7" font-family="Times,serif" font-size="14.00" fill="#000000"> - methodToTest : String</text>
<text text-anchor="start" x="5711.7592" y="-342.9" font-family="Times,serif" font-size="14.00" fill="#000000"> - directives : List&lt;String&gt;</text>
<text text-anchor="start" x="5711.7592" y="-326.1" font-family="Times,serif" font-size="14.00" fill="#000000"> - testType : String</text>
<text text-anchor="start" x="5711.7592" y="-309.3" font-family="Times,serif" font-size="14.00" fill="#000000"> - testName : String</text>
<polyline fill="none" stroke="#000000" points="5703.7592,-301.1 6054.9066,-301.1 "/>
<text text-anchor="start" x="5711.7592" y="-284.5" font-family="Times,serif" font-size="14.00" fill="#000000">directives : List&lt;String&gt;</text>
<text text-anchor="start" x="5711.7592" y="-267.7" font-family="Times,serif" font-size="14.00" fill="#000000"> classToTest : String</text>
<text text-anchor="start" x="5711.7592" y="-250.9" font-family="Times,serif" font-size="14.00" fill="#000000"> methodToTest : String</text>
<text text-anchor="start" x="5711.7592" y="-234.1" font-family="Times,serif" font-size="14.00" fill="#000000"> testName : String</text>
<text text-anchor="start" x="5711.7592" y="-217.3" font-family="Times,serif" font-size="14.00" fill="#000000"> testType : String</text>
</g>
<!-- RainyDayTestCase&#45;&gt;TestCase -->
<g id="edge14" class="edge">
<title>RainyDayTestCase-&gt;TestCase</title>
<path fill="none" stroke="#008200" stroke-dasharray="5,2" d="M5736.8219,-209.0834C5736.8219,-209.0834 5736.8219,-144.1061 5736.8219,-144.1061"/>
<polygon fill="#008200" stroke="#008200" points="5740.322,-144.106 5736.8219,-134.1061 5733.322,-144.1061 5740.322,-144.106"/>
</g>
<!-- RelationshipIdentifier -->
<g id="node27" class="node">
<title>RelationshipIdentifier</title>
<polygon fill="none" stroke="#000000" points="6072.5532,-171.1 6072.5532,-480.7 6920.1126,-480.7 6920.1126,-171.1 6072.5532,-171.1"/>
<text text-anchor="middle" x="6496.3329" y="-464.1" font-family="Times,serif" font-size="14.00" fill="#000000">RelationshipIdentifier</text>
<polyline fill="none" stroke="#000000" points="6072.5532,-455.9 6920.1126,-455.9 "/>
<text text-anchor="start" x="6080.5532" y="-439.3" font-family="Times,serif" font-size="14.00" fill="#000000">+ RelationshipIdentifier() : </text>
<polyline fill="none" stroke="#000000" points="6072.5532,-431.1 6920.1126,-431.1 "/>
<text text-anchor="start" x="6080.5532" y="-414.5" font-family="Times,serif" font-size="14.00" fill="#000000">+ identifyPackageNodeRelationships(Map&lt;LeafNode, Set&lt;Relationship&lt;LeafNode&gt;&gt;&gt;) : Map&lt;PackageNode, Set&lt;Relationship&lt;PackageNode&gt;&gt;&gt;</text>
<text text-anchor="start" x="6080.5532" y="-397.7" font-family="Times,serif" font-size="14.00" fill="#000000"> - isExtension(int, int) : boolean</text>
<text text-anchor="start" x="6080.5532" y="-380.9" font-family="Times,serif" font-size="14.00" fill="#000000"> - isRelationshipAggregation(List&lt;String&gt;, String) : boolean</text>
<text text-anchor="start" x="6080.5532" y="-364.1" font-family="Times,serif" font-size="14.00" fill="#000000"> - isDependency(int, int) : boolean</text>
<text text-anchor="start" x="6080.5532" y="-347.3" font-family="Times,serif" font-size="14.00" fill="#000000"> - isAssociation(int, int) : boolean</text>
<text text-anchor="start" x="6080.5532" y="-330.5" font-family="Times,serif" font-size="14.00" fill="#000000"> - isFieldOfTypeCollection(String, String) : boolean</text>
<text text-anchor="start" x="6080.5532" y="-313.7" font-family="Times,serif" font-size="14.00" fill="#000000"> - isImplementation(int, int) : boolean</text>
<text text-anchor="start" x="6080.5532" y="-296.9" font-family="Times,serif" font-size="14.00" fill="#000000"> - doesRelationshipExist(List&lt;String&gt;, String) : boolean</text>
<text text-anchor="start" x="6080.5532" y="-280.1" font-family="Times,serif" font-size="14.00" fill="#000000"> - isSubNode(int, int) : boolean</text>
<text text-anchor="start" x="6080.5532" y="-263.3" font-family="Times,serif" font-size="14.00" fill="#000000"> - getLeafNode(int) : LeafNode</text>
<text text-anchor="start" x="6080.5532" y="-246.5" font-family="Times,serif" font-size="14.00" fill="#000000"> - isAggregation(int, int) : boolean</text>
<text text-anchor="start" x="6080.5532" y="-229.7" font-family="Times,serif" font-size="14.00" fill="#000000"> - checkRelationship(int, int) : void</text>
<text text-anchor="start" x="6080.5532" y="-212.9" font-family="Times,serif" font-size="14.00" fill="#000000"> - doesFieldBelongToClass(String, String) : boolean</text>
<text text-anchor="start" x="6080.5532" y="-196.1" font-family="Times,serif" font-size="14.00" fill="#000000"> - createRelationship(int, int, RelationshipType) : void</text>
<text text-anchor="start" x="6080.5532" y="-179.3" font-family="Times,serif" font-size="14.00" fill="#000000"> + createLeafNodesRelationships(Map&lt;Path, PackageNode&gt;) : Map&lt;LeafNode, Set&lt;Relationship&lt;LeafNode&gt;&gt;&gt;</text>
</g>
<!-- RelationshipIdentifier&#45;&gt;IRelationshipIdentifier -->
<g id="edge15" class="edge">
<title>RelationshipIdentifier-&gt;IRelationshipIdentifier</title>
<path fill="none" stroke="#008200" stroke-dasharray="5,2" d="M6496.3329,-170.9925C6496.3329,-170.9925 6496.3329,-119.3926 6496.3329,-119.3926"/>
<polygon fill="#008200" stroke="#008200" points="6499.833,-119.3925 6496.3329,-109.3926 6492.833,-119.3926 6499.833,-119.3925"/>
</g>
<!-- TestCaseFactory -->
<g id="node30" class="node">
<title>TestCaseFactory</title>
<polygon fill="none" stroke="#000000" points="10211.1673,-288.7 10211.1673,-363.1 10631.4985,-363.1 10631.4985,-288.7 10211.1673,-288.7"/>
<text text-anchor="middle" x="10421.3329" y="-346.5" font-family="Times,serif" font-size="14.00" fill="#000000">TestCaseFactory</text>
<polyline fill="none" stroke="#000000" points="10211.1673,-338.3 10631.4985,-338.3 "/>
<text text-anchor="start" x="10219.1673" y="-321.7" font-family="Times,serif" font-size="14.00" fill="#000000">+ TestCaseFactory() : </text>
<polyline fill="none" stroke="#000000" points="10211.1673,-313.5 10631.4985,-313.5 "/>
<text text-anchor="start" x="10219.1673" y="-296.9" font-family="Times,serif" font-size="14.00" fill="#000000">+ createTestCase(String, String, String, String, List&lt;String&gt;) : TestCase</text>
</g>
<!-- TestCaseParser -->
<g id="node31" class="node">
<title>TestCaseParser</title>
<polygon fill="none" stroke="#000000" points="10649.5919,-271.9 10649.5919,-379.9 10917.0739,-379.9 10917.0739,-271.9 10649.5919,-271.9"/>
<text text-anchor="middle" x="10783.3329" y="-363.3" font-family="Times,serif" font-size="14.00" fill="#000000">TestCaseParser</text>
<polyline fill="none" stroke="#000000" points="10649.5919,-355.1 10917.0739,-355.1 "/>
<text text-anchor="start" x="10657.5919" y="-338.5" font-family="Times,serif" font-size="14.00" fill="#000000">+ TestCaseParser() : </text>
<polyline fill="none" stroke="#000000" points="10649.5919,-330.3 10917.0739,-330.3 "/>
<text text-anchor="start" x="10657.5919" y="-313.7" font-family="Times,serif" font-size="14.00" fill="#000000"># getBufferedReader(Path) : BufferedReader</text>
<text text-anchor="start" x="10657.5919" y="-296.9" font-family="Times,serif" font-size="14.00" fill="#000000"> - parseLineToTestCase(String) : TestCase</text>
<text text-anchor="start" x="10657.5919" y="-280.1" font-family="Times,serif" font-size="14.00" fill="#000000"> + parseTestCases(Path) : List&lt;TestCase&gt;</text>
</g>
<!-- VariableVisitor -->
<g id="node32" class="node">
<title>VariableVisitor</title>
<polygon fill="none" stroke="#000000" points="4309.1762,-288.7 4309.1762,-363.1 4581.4896,-363.1 4581.4896,-288.7 4309.1762,-288.7"/>
<text text-anchor="middle" x="4445.3329" y="-346.5" font-family="Times,serif" font-size="14.00" fill="#000000">VariableVisitor</text>
<polyline fill="none" stroke="#000000" points="4309.1762,-338.3 4581.4896,-338.3 "/>
<text text-anchor="start" x="4317.1762" y="-321.7" font-family="Times,serif" font-size="14.00" fill="#000000">+ VariableVisitor() : </text>
<polyline fill="none" stroke="#000000" points="4309.1762,-313.5 4581.4896,-313.5 "/>
<text text-anchor="start" x="4317.1762" y="-296.9" font-family="Times,serif" font-size="14.00" fill="#000000">+ visit(VariableDeclarationExpr, Void) : void</text>
</g>
<!-- VariableVisitor&#45;&gt;FileVisitor -->
<g id="edge16" class="edge">
<title>VariableVisitor-&gt;FileVisitor</title>
<path fill="none" stroke="#820000" d="M4445.3329,-280.4654C4445.3329,-280.4654 4445.3329,-35 4445.3329,-35 4445.3329,-35 3899.597,-35 3584.3599,-35"/>
<ellipse fill="none" stroke="#820000" cx="4445.3329" cy="-284.4654" rx="4" ry="4"/>
</g>
<!-- package &#160;codepilotunittest.parser.tree -->
<g id="node33" class="node">
<title>package  codepilotunittest.parser.tree</title>
<polygon fill="none" stroke="#000000" points="10934.9047,-292.7 10934.9047,-359.1 11155.7611,-359.1 11155.7611,-292.7 10934.9047,-292.7"/>
<text text-anchor="middle" x="11045.3329" y="-342.5" font-family="Times,serif" font-size="14.00" fill="#000000">&lt;&lt;package&gt;&gt;</text>
<text text-anchor="middle" x="11045.3329" y="-325.7" font-family="Times,serif" font-size="14.00" fill="#000000">package codepilotunittest.parser.tree</text>
<polyline fill="none" stroke="#000000" points="10934.9047,-317.5 11155.7611,-317.5 "/>
<text text-anchor="middle" x="11045.3329" y="-300.9" font-family="Times,serif" font-size="14.00" fill="#000000"> </text>
</g>
</g>
</svg>